/* XPM */
static char *result[] = {
/* columns rows colors chars-per-pixel */
"32 32 7 1 ",
"  c gray10",
". c #1E1E1E",
"X c #252525",
"o c #2C2C2C",
"O c #343434",
"+ c #3C3C3C",
"@ c white",
/* pixels */
"OoooX ..     .X. XXooX.X+o   .Xo",
"oXo  .. .   .oXo .XXXo +oOo.  Xo",
"oX. .  .     .oXX. .  .XOooX.X.X",
"X.  .   . . . X.X . .. .XXXo . .",
". .    . .    . .  ..o.X.XoX  . ",
". ...   . . ..  . .. . .o.. .oXX",
"   .. .. ..    .. X.X ..X . OoOo",
"X.  .  .    .  X.XXX. . oo  oOoo",
".     . . . ..XXoOooXX...X.oooXX",
" . .   .  .. XooOoOOo.    XoX.. ",
"X ..X     . Xo+OOOOoooX.   ..Oo+",
"oX.    ... XXoO+o+ooOoo  X. XX+X",
"Xo. ..    XooX+OooooOXXo.o .XooO",
"oX . .   .X+OooO+oOooXoXoX.oO++o",
"o.  X.   XX++++o+OoXXoooo. ooOoo",
"X ..X.X. .oo+oooo+ooOOooooo.Xo+o",
"...X .X..X+ooOo+oOOooOoXoo.X.XoX",
".  . . .oXOOooOoOooooooooo.  . .",
" ..XX . XoooOooOoOooXoXoXo  X. .",
"o. ..  XoXoOXoXoXoOoXXooo. .  . ",
"X.  X. XXooXoXOoOXoXoXo...X. .  ",
"o+.     oXooXXooOoOO.o . X  . . ",
"oO..X   . Xoo. .oXX.. . ..     .",
"Ooo..     oX.  . .  .oXO+  .X .X",
"oOOX.X.. ..X  XX   . XX+ooo ..XX",
"oXoo.. X  XX  X.  .X.ooOoXo+o.Xo",
"XoXX  . . .  .. ..Xoo+O+OoXoOX o",
" . . . .      . .X++oO++OXoO+X  ",
" X.  . . ..     X+OoOo+Oo++XoX..",
"ooOo. .oO+Oo. .OoOo+X+O+XooXX. O",
"+OOoo. XoOoo .XX+oOoXooXo. .  +o",
"o+oOX ..XoX.  ..XXoXoX  ..  . oO"
};
