/* XPM */
static char *result[] = {
/* columns rows colors chars-per-pixel */
"32 32 16 1 ",
"  c black",
". c gray2",
"X c #000033",
"o c #191919",
"O c #4e4eff",
"+ c #3F282A",
"@ c #ff0000",
"# c #4F2428",
"$ c #502E32",
"% c #693E42",
"& c #4B4B4B",
"* c #5F5F5F",
"= c #71464A",
"- c gray50",
"; c #AC6868",
": c None",
/* pixels */
"::::::::::::::::::::::::::::::::",
"::::::::::::::::::::::::::::::::",
"::::::::::::::::::::::::::::::::",
"::::::::::::::::::::::::::::::::",
"::::::::::::::::::::::::::::::::",
"::::::::::::::::::::::::::::::::",
"::::::::::::::::::::::::::::::::",
"::::::::::::::::::::::::::::::::",
":::::@@:::::::::::::::::::::::::",
":::::@@@@:::::::::::::::::::::::",
":::::@@@@@@:::::::::::::::::::::",
":::::@@@@@@@@:::::::::::::::::::",
":::::@@@@@@@@@@:::::::::::::::::",
":::::@@@@@@@@@@@@@::::::::::::::",
":::::@@@@@@@@@@@@@@@::::::::::::",
":::::@@@@@@@@@@@@@@@@@::::::::::",
":::::@@@@@@@@@@@@@@@@@@@::::::::",
":::::@@@@@@@@@@@@@@@@@::::::::::",
":::::@@@@@@@@@@@@@@@::::::::::::",
":::::@@@@@@@@@@@@@::::::::::::::",
":::::@@@@@@@@@@:::::::::::::::::",
":::::@@@@@@@@:::::::::::::::::::",
":::::@@@@@@:::::::::::::::::::::",
":::::@@@@:::::::::::::::::::::::",
":::::@@:::::::::::::::::::::::::",
"::::::::::::::::::::::::::::::::",
"::::::::::::::::::::::::::::::::",
"::::::::::::::::::::::::::::::::",
"::::::::::::::::::::::::::::::::",
"::::::::::::::::::::::::::::::::",
"::::::::::::::::::::::::::::::::",
"::::::::::::::::::::::::::::::::",
};
